<?xml version="1.0" encoding="UTF-8"?>
<svg xmlns="http://www.w3.org/2000/svg" width="1457" height="494" viewBox="0 0 1457 494">
  <path fill="#000000" fill-rule="evenodd" d="M 1377 350 L 1373 350 L 1362 354 L 1362 405 L 1377 405 Z M 1280 350 L 1299 405 L 1300 406 L 1307 405 L 1314 383 L 1316 380 L 1318 380 L 1326 402 L 1326 405 L 1327 406 L 1333 406 L 1349 365 L 1353 350 L 1340 350 L 1339 351 L 1339 354 L 1332 374 L 1330 374 L 1328 372 L 1326 364 L 1324 361 L 1323 354 L 1321 353 L 1321 351 L 1314 351 L 1307 371 L 1305 374 L 1303 374 L 1301 371 L 1301 368 L 1295 350 Z M 766 350 L 751 354 L 751 405 L 766 405 Z M 586 350 L 582 350 L 579 352 L 571 354 L 571 405 L 586 405 Z M 1269 352 L 1262 349 L 1254 349 L 1246 353 L 1244 353 L 1243 350 L 1240 350 L 1229 354 L 1229 405 L 1243 405 L 1243 374 L 1245 368 L 1251 362 L 1258 363 L 1261 368 L 1261 405 L 1275 405 L 1275 374 L 1276 373 L 1275 362 L 1273 356 Z M 1188 349 L 1177 353 L 1167 364 L 1165 370 L 1165 385 L 1168 393 L 1177 402 L 1186 406 L 1200 406 L 1207 404 L 1214 400 L 1214 397 L 1210 390 L 1207 390 L 1199 394 L 1192 395 L 1186 393 L 1181 388 L 1181 385 L 1183 383 L 1220 376 L 1219 367 L 1217 361 L 1205 351 L 1198 349 Z M 1180 373 L 1181 368 L 1188 361 L 1197 361 L 1203 366 L 1202 370 L 1198 370 L 1183 374 Z M 1043 350 L 1035 354 L 1030 359 L 1025 369 L 1026 389 L 1029 395 L 1035 401 L 1040 404 L 1046 406 L 1059 406 L 1065 404 L 1074 398 L 1079 389 L 1081 382 L 1081 372 L 1079 366 L 1073 356 L 1065 351 L 1057 349 Z M 1048 361 L 1058 362 L 1062 365 L 1066 373 L 1066 383 L 1063 389 L 1057 394 L 1048 394 L 1040 386 L 1040 381 L 1039 380 L 1040 370 L 1043 365 Z M 615 350 L 608 353 L 600 361 L 597 367 L 596 385 L 599 393 L 606 401 L 618 406 L 632 406 L 645 401 L 646 398 L 641 390 L 638 390 L 630 394 L 623 395 L 616 392 L 613 389 L 612 385 L 614 383 L 651 376 L 651 371 L 649 364 L 646 359 L 638 352 L 629 349 Z M 611 373 L 611 370 L 613 366 L 620 361 L 628 361 L 634 366 L 633 370 L 624 371 L 614 374 Z M 562 349 L 550 350 L 546 354 L 543 353 L 543 350 L 540 350 L 529 354 L 529 405 L 544 405 L 544 371 L 550 363 L 552 362 L 561 362 Z M 401 352 L 392 360 L 388 368 L 387 382 L 388 387 L 392 395 L 401 403 L 409 406 L 422 406 L 430 404 L 436 401 L 437 397 L 433 390 L 430 390 L 425 393 L 415 395 L 410 394 L 405 389 L 404 385 L 406 383 L 415 382 L 442 376 L 442 368 L 438 360 L 431 353 L 425 350 L 410 349 Z M 403 373 L 404 367 L 412 361 L 419 361 L 425 365 L 424 370 L 411 372 L 406 374 Z M 378 351 L 375 351 L 371 354 L 367 355 L 360 350 L 346 349 L 337 352 L 327 362 L 324 372 L 324 384 L 327 393 L 330 397 L 337 403 L 344 406 L 356 406 L 360 404 L 363 405 L 362 411 L 355 417 L 344 417 L 335 412 L 333 412 L 329 417 L 327 423 L 337 428 L 353 430 L 366 427 L 374 420 L 378 409 Z M 347 361 L 357 362 L 362 367 L 364 373 L 363 386 L 360 391 L 355 394 L 347 394 L 343 391 L 339 384 L 339 371 L 341 367 Z M 269 354 L 263 361 L 259 373 L 260 388 L 266 399 L 273 404 L 280 406 L 294 405 L 296 403 L 298 403 L 299 401 L 301 401 L 304 406 L 313 403 L 315 401 L 314 396 L 314 350 L 312 350 L 304 355 L 301 355 L 297 351 L 291 349 L 281 349 L 274 351 Z M 283 361 L 292 362 L 297 367 L 299 372 L 298 386 L 291 394 L 288 395 L 280 393 L 275 387 L 274 383 L 275 369 Z M 256 349 L 245 350 L 240 354 L 237 353 L 237 350 L 230 351 L 223 354 L 223 405 L 237 405 L 238 404 L 238 374 L 239 369 L 244 363 L 254 362 L 255 361 L 257 353 Z M 167 353 L 160 362 L 157 371 L 157 385 L 162 397 L 169 403 L 177 406 L 188 406 L 197 402 L 199 402 L 202 406 L 204 406 L 206 404 L 212 402 L 213 397 L 211 389 L 211 351 L 208 351 L 202 355 L 198 355 L 194 351 L 188 349 L 179 349 Z M 180 361 L 186 361 L 191 363 L 194 366 L 197 373 L 197 381 L 194 389 L 191 392 L 185 395 L 179 394 L 173 388 L 172 384 L 172 370 L 176 364 Z M 1147 327 L 1137 334 L 1135 334 L 1134 336 L 1134 349 L 1133 350 L 1126 350 L 1126 362 L 1133 362 L 1134 363 L 1134 388 L 1136 396 L 1138 400 L 1143 405 L 1149 407 L 1156 401 L 1156 399 L 1151 394 L 1149 388 L 1149 363 L 1150 362 L 1157 362 L 1162 355 L 1163 350 L 1150 350 L 1149 349 L 1149 327 Z M 1106 327 L 1093 336 L 1093 349 L 1092 350 L 1085 350 L 1085 362 L 1092 362 L 1093 363 L 1093 388 L 1095 396 L 1101 404 L 1108 407 L 1115 402 L 1115 399 L 1110 394 L 1108 388 L 1108 363 L 1118 361 L 1119 357 L 1121 356 L 1122 350 L 1109 350 L 1108 349 L 1108 327 Z M 1365 326 L 1361 330 L 1360 333 L 1361 339 L 1366 343 L 1375 342 L 1378 338 L 1377 329 L 1373 326 Z M 967 326 L 967 335 L 966 336 L 966 401 L 967 405 L 994 405 L 1008 401 L 1014 396 L 1018 388 L 1017 373 L 1008 364 L 1008 361 L 1011 360 L 1016 351 L 1016 342 L 1014 336 L 1008 330 L 1001 327 Z M 982 370 L 983 369 L 990 369 L 997 371 L 1002 376 L 1001 386 L 994 391 L 983 392 L 982 391 Z M 982 340 L 983 339 L 993 339 L 997 341 L 1000 345 L 1000 351 L 993 357 L 983 358 L 982 357 Z M 754 326 L 750 331 L 751 340 L 755 343 L 764 342 L 767 339 L 768 335 L 767 330 L 762 326 Z M 575 326 L 570 331 L 571 341 L 575 343 L 582 343 L 587 338 L 587 331 L 585 327 Z M 523 326 L 476 326 L 476 405 L 491 405 L 491 373 L 492 372 L 517 372 L 517 359 L 493 359 L 491 357 L 491 340 L 492 339 L 517 339 L 523 329 Z M 898 325 L 885 330 L 874 341 L 870 349 L 868 357 L 868 374 L 870 382 L 874 390 L 885 401 L 898 406 L 914 406 L 924 403 L 930 399 L 931 395 L 931 363 L 908 363 L 904 369 L 902 375 L 914 375 L 915 376 L 915 390 L 912 392 L 900 392 L 894 389 L 885 378 L 884 357 L 886 354 L 886 351 L 894 342 L 900 339 L 911 339 L 918 343 L 923 344 L 927 337 L 929 336 L 929 332 L 918 326 Z M 828 325 L 801 392 L 797 405 L 812 405 L 814 402 L 817 391 L 819 389 L 843 389 L 846 392 L 850 405 L 866 405 L 863 394 L 850 364 L 846 351 L 842 344 L 842 341 L 839 336 L 837 328 L 835 325 Z M 830 357 L 832 357 L 834 360 L 839 374 L 838 377 L 825 377 L 824 376 L 824 372 Z M 108 327 L 98 333 L 94 337 L 87 349 L 85 357 L 86 379 L 88 382 L 89 387 L 92 390 L 93 393 L 103 402 L 114 406 L 136 405 L 147 399 L 148 395 L 148 363 L 125 363 L 120 371 L 119 375 L 131 375 L 132 376 L 132 390 L 128 392 L 117 392 L 112 390 L 111 388 L 107 386 L 102 377 L 101 357 L 105 348 L 111 342 L 117 339 L 129 339 L 137 344 L 140 344 L 143 340 L 146 332 L 138 327 L 130 325 L 116 325 Z M 713 319 L 708 319 L 699 322 L 699 347 L 697 352 L 688 349 L 678 349 L 670 352 L 665 356 L 660 364 L 658 370 L 659 389 L 663 397 L 672 404 L 678 406 L 689 406 L 693 405 L 697 402 L 700 402 L 703 406 L 706 406 L 715 401 L 715 398 L 713 394 Z M 682 361 L 691 362 L 696 367 L 698 371 L 698 384 L 694 391 L 689 394 L 679 393 L 674 388 L 672 381 L 673 370 L 676 365 Z M 1403 318 L 1389 322 L 1389 405 L 1403 405 Z M 740 318 L 725 322 L 725 405 L 739 405 L 739 400 L 740 399 L 740 328 L 739 327 Z M 1269 185 L 1255 193 L 1248 200 L 1240 214 L 1239 219 L 1238 220 L 1228 220 L 1224 226 L 1224 229 L 1236 229 L 1237 230 L 1238 242 L 1244 257 L 1251 266 L 1260 273 L 1270 278 L 1279 280 L 1293 280 L 1305 277 L 1317 270 L 1325 262 L 1333 247 L 1333 244 L 1335 242 L 1344 242 L 1348 237 L 1348 233 L 1336 233 L 1335 232 L 1335 224 L 1331 210 L 1324 200 L 1313 190 L 1303 185 L 1295 183 L 1276 183 L 1272 185 Z M 1247 231 L 1248 230 L 1251 231 L 1264 231 L 1267 233 L 1267 235 L 1258 242 L 1258 244 L 1322 243 L 1323 247 L 1315 259 L 1302 268 L 1292 271 L 1275 270 L 1262 263 L 1255 256 L 1248 243 Z M 1250 215 L 1257 204 L 1267 196 L 1283 191 L 1295 192 L 1301 194 L 1311 200 L 1320 210 L 1324 218 L 1326 231 L 1325 232 L 1316 232 L 1315 231 L 1305 231 L 1304 230 L 1304 228 L 1314 220 L 1314 218 L 1251 219 Z M 1237 136 L 1193 93 L 1149 85 L 977 70 L 818 78 L 985 77 L 1093 87 L 1186 102 L 1225 140 L 1156 179 L 1093 189 L 661 217 L 394 241 L 219 271 L 160 288 L 131 302 L 232 273 L 374 252 L 1137 197 L 1192 177 L 1234 150 Z M 1421 221 L 1416 209 L 1370 177 L 1299 114 L 1301 99 L 1288 89 L 1158 62 L 1037 48 L 898 46 L 786 54 L 694 78 L 469 190 L 220 246 L 126 279 L 79 308 L 51 339 L 34 387 L 34 442 L 38 386 L 52 347 L 80 315 L 119 291 L 226 254 L 464 205 L 698 92 L 791 67 L 890 59 L 1037 60 L 1149 71 L 1274 94 L 1292 101 L 1288 115 L 1415 214 L 1416 260 Z" />
</svg>
