<?xml version="1.0" encoding="utf-8"?>
<!-- Generator: Adobe Illustrator 25.3.1, SVG Export Plug-In . SVG Version: 6.00 Build 0)  -->
<svg version="1.1" xmlns="http://www.w3.org/2000/svg" xmlns:xlink="http://www.w3.org/1999/xlink" x="0px" y="0px"
	 viewBox="0 0 1071.4 324.4" style="enable-background:new 0 0 1071.4 324.4;" xml:space="preserve">
<style type="text/css">
	.st0{fill-rule:evenodd;clip-rule:evenodd;fill:#FFED00;stroke:#009879;stroke-width:7.41;}
	.st1{fill-rule:evenodd;clip-rule:evenodd;fill:#009879;stroke:#009879;stroke-width:2.4845;}
	.st2{fill-rule:evenodd;clip-rule:evenodd;fill:#009879;stroke:#009879;stroke-width:2.4797;}
	.st3{fill:#009879;stroke:#009879;stroke-width:0.9;}
	.st4{fill:#FFED00;stroke:#FFED00;stroke-width:0.9;}
</style>
<g id="Ebene_3">
	<g>
		<polygon class="st0" points="536.7,3.7 536.7,133.5 606.3,133.5 606.3,89.5 684.8,89.5 684.8,66 606.3,66 606.3,3.7 		"/>
		<path class="st0" d="M535.9,151.8c50.9,0,97.6,0,148.5,0c0,37.4-34.6,69.6-75.7,69.6C568.9,221.3,535.9,186.8,535.9,151.8z"/>
		<rect x="464.3" y="151.8" class="st0" width="52.9" height="70.8"/>
		<rect x="392.3" y="151.8" class="st0" width="53.3" height="70.8"/>
		<rect x="320.7" y="151.8" class="st0" width="53.3" height="70.8"/>
		<path class="st0" d="M320.7,133.5c67.1,0,129.8,0,196.9,0c0-41.9-46.8-82.2-97.6-53.7C368.3,50.9,320.7,92.8,320.7,133.5z"/>
	</g>
	<path class="st1" d="M708,149.4l362.1-0.4v75.7H781C722.7,218.9,708,175.4,708,149.4z"/>
	<path class="st2" d="M297.1,149.4L1.2,148.9v75.7h223.5C282.5,218.9,297.1,175.4,297.1,149.4z"/>
</g>
<g id="Ebene_2">
	<g>
		<path class="st3" d="M238.7,322.7v-28.2c0-4.3-0.5-15.2-12-15.2c-12.2,0-12,10.9-12.1,15.1v28.3h-9.5v-28.2
			c0.1-4.2-0.1-7-2.1-10.4c-2.4-3.7-5.9-4.8-9.4-4.8c-12.5,0-12.5,11.3-12.5,15.1v28.3h-9.5V272h8.8v5.5h0.2
			c1.8-2.1,5.1-6.9,14.6-6.9c6.1,0,13.2,2.9,15.7,8.5c1.6-2.6,5.4-8.5,16.7-8.5c8.5,0,14.6,3.5,17.8,9.1c1.8,3.3,2.8,7.4,2.8,12.4
			v30.6H238.7z"/>
		<path class="st3" d="M271.1,322.7h-9.5v-42h-6.9V272h6.9v-17h9.5v17h8.3v8.7h-8.3V322.7z"/>
		<path class="st3" d="M282.4,301v-9.5h25.6v9.5H282.4z"/>
		<path class="st3" d="M316.9,322.7V255h9.5V279h0.2c4.1-5.8,10.5-8.4,17.4-8.4c13.5,0,26.3,11.1,26.3,26.7
			c0,14.6-11.3,26.6-26.1,26.6c-4.7,0-12.4-1.6-17.7-8.6h-0.2v7.3H316.9z M343.5,315.3c9.2,0,17.3-7.9,17.3-17.9
			c0-9.5-7.3-18-17.3-18c-10.4,0-17.3,8.9-17.3,17.8C326.2,308.6,335,315.3,343.5,315.3z"/>
		<path class="st3" d="M417,322.7v-7.9h-0.2c-3.7,6.2-10.3,9.2-17.2,9.2c-17.1,0-26.9-13.1-26.9-26.4c0-12.4,8.7-26.9,26.9-26.9
			c7,0,13.5,2.9,17.2,8.5h0.2V272h9.5v50.7H417z M399.6,279.3c-11.7,0-17.4,10.2-17.4,18.1c0,9.2,7.2,17.8,17.3,17.8
			c10,0,17.7-8.1,17.7-17.8C417.1,286.6,409.4,279.3,399.6,279.3z"/>
		<path class="st3" d="M442.7,272v27.5c0,12.5,5.6,15.8,12.6,15.8c7.9,0,13.3-5,13.3-16.1V272h9.5v50.7h-8.7v-5.5h-0.2
			c-2.6,4.4-8.5,6.8-14.9,6.8c-5.8,0-10.8-1.8-14.5-5c-4.2-3.7-6.7-9.3-6.7-19.5V272H442.7z"/>
		<path class="st3" d="M505.7,285.4c-0.6-4.1-3-6.1-6.5-6.1c-3.5,0-5.9,2.2-5.9,5.4c0,4.2,3.7,5.3,7.9,6.6
			c3.9,1.2,15.3,4.4,15.3,16.5c0,9-6.2,16.2-17,16.2c-6.4,0-17.9-4-17.9-17.9h9.5c0.4,5.7,3.3,9.2,8.6,9.2c4.3,0,7.3-2.7,7.3-7
			c0-4.5-3.9-6-8.9-7.8c-5.5-2-14.3-4.5-14.3-15.3c0-7.5,6.3-14.6,15.9-14.6c5.8,0,15.3,3.6,15.6,14.8H505.7z"/>
		<path class="st3" d="M532.9,322.7h-9.5v-42h-6.9V272h6.9v-17h9.5v17h8.3v8.7h-8.3V322.7z"/>
		<path class="st3" d="M566.4,324c-17,0-27.4-14.2-27.4-27c0-13.8,11.6-26.4,27.4-26.4c15.4,0,27.4,12.1,27.4,26.5
			C593.7,309.5,583.6,324,566.4,324z M566.4,279.3c-10.7,0-17.8,8.9-17.8,17.9c0,9.1,7.2,18,17.8,18c10.2,0,17.8-8.5,17.8-18.1
			C584.2,288.2,577.1,279.3,566.4,279.3z"/>
		<path class="st3" d="M598.2,322.7v-42h-4.5V272h4.5v-2.5c0-5.4,2.1-9.2,6-11.8c4.1-2.5,6.8-2.7,12.4-2.7v8.7
			c-6.3,0-8.9,2.3-8.9,5.9v2.5h8.9v8.7h-8.9v42H598.2z"/>
		<path class="st3" d="M619.4,322.7v-42H615V272h4.5v-2.5c0-5.4,2.1-9.2,6-11.8c4.1-2.5,6.8-2.7,12.4-2.7v8.7
			c-6.3,0-8.9,2.3-8.9,5.9v2.5h8.9v8.7H629v42H619.4z"/>
		<path class="st3" d="M646,301.4c2.4,9.8,10.3,13.8,16.7,13.8c7,0,12.2-4.1,14.5-8.5h9.5c-4.9,13.1-16.5,17.2-24.3,17.2
			c-14.4,0-25.8-12.4-25.8-26.7c0-15.2,11.7-26.6,26-26.6c13.7,0,25.7,11.2,25.8,26c0,1.6-0.2,4.2-0.3,4.9H646z M678.7,294.1
			c-0.5-7.4-7.2-14.8-16.4-14.8c-9.2,0-15.9,7.4-16.4,14.8H678.7z"/>
		<path class="st3" d="M695,322.7v-11.2h9.5v11.2H695z"/>
		<path class="st3" d="M755,288.8c-1.6-3.2-5.2-9.5-14.3-9.5c-12.3,0-16.7,10.3-16.7,17.9c0,8.8,5.6,18,16.5,18
			c7.1,0,12-4.1,14.4-9.3h10.6c-3.8,11.3-13.7,18-25,18c-16.7,0-26-13.6-26-26.7c0-13.7,10.1-26.6,26.1-26.6
			c14.4,0,23,10.7,24.9,18.2H755z"/>
		<path class="st3" d="M809.9,322.7v-27.5c0-3.9,0-15.8-12.6-15.8c-8,0-13.4,5.6-13.4,15.7v27.6h-9.5V255h9.5v22.4h0.2
			c4.6-6.8,12.2-6.8,14.2-6.8c7.9,0,14.3,3.4,17.9,9.1c2,3.3,3.1,7.3,3.2,13v30H809.9z"/>
	</g>
</g>
<g id="Ebene_5">
	<g>
		<path class="st4" d="M44.1,173.3H52v2.9h0.1c0.7-1.1,3.2-4.1,9.4-4.1c1.9,0,7,0.4,10.3,5.4c3.7-5.1,9-5.4,11.6-5.4
			c7,0,10.5,3.6,11.8,5.3c1.4,1.8,2.7,5,2.7,10.1v19.9h-8.6v-18.9c0-2,0-8.9-6.8-8.9c-2.4,0-4.7,1.2-5.9,3.2c-1.4,2-1.3,5.4-1.3,7.6
			v17h-8.6v-18.9c0-4.7-1.9-8.9-7.2-8.9c-6.8,0-6.8,7.1-6.8,10.8v17h-8.6V173.3z"/>
		<path class="st4" d="M135.7,173.3v34.1h-7.9V204h-0.1c-1.4,1.8-3.7,4.5-9.2,4.5c-6.5,0-10.2-3.1-12-5.4c-2.6-3.6-2.6-9.2-2.6-12
			v-17.8h8.6v17.4c0,2.8,0,10.3,7.5,10.3c5.4,0,7.2-4.9,7.2-10.3v-17.5H135.7z M108.8,160.2h8.7v8.2h-8.7V160.2z M122.4,160.2h8.6
			v8.2h-8.6V160.2z"/>
		<path class="st4" d="M142,162h8.6v45.5H142V162z"/>
		<path class="st4" d="M156.7,162h8.6v45.5h-8.6V162z"/>
		<path class="st4" d="M179,194.1c0.4,2.2,3.7,7,9.9,7c3.8,0,6.7-1.5,8.3-4.4h9c-2.1,6.1-8.9,11.9-17.3,11.9
			c-10.7,0-18.9-8.1-18.9-18.1c0-9.7,7.8-18.5,18.9-18.5c11.4,0,18.5,9.3,18.5,17.9c0,1.6-0.3,3-0.5,4.1H179z M198.6,187.5
			c-1-5.5-5.4-8-9.7-8c-3.2,0-8.5,1.7-10.1,8H198.6z"/>
		<path class="st4" d="M212.6,173.3h7.9v3h0.1c1.6-2.2,3.2-4.2,7.7-4.2h0.7v7.9c-7.8,0.3-7.8,6.1-7.8,8.2v19.2h-8.6V173.3z"/>
	</g>
	<g>
		<path class="st4" d="M779.4,180.6h-4.2v-7.3h4.2V162h8.6v11.4h5.2v7.3H788v26.9h-8.6V180.6z"/>
		<path class="st4" d="M796.8,173.3h7.9v3h0.1c1.6-2.2,3.2-4.2,7.7-4.2h0.7v7.9c-7.8,0.3-7.8,6.1-7.8,8.2v19.2h-8.6V173.3z"/>
		<path class="st4" d="M817.7,162h8.6v7.5h-8.6V162z M817.7,173.3h8.6v34.1h-8.6V173.3z"/>
		<path class="st4" d="M840.4,194.1c0.4,2.2,3.7,7,9.9,7c3.8,0,6.7-1.5,8.3-4.4h9c-2.1,6.1-8.9,11.9-17.3,11.9
			c-10.7,0-18.9-8.1-18.9-18.1c0-9.7,7.8-18.5,18.9-18.5c11.4,0,18.5,9.3,18.5,17.9c0,1.6-0.3,3-0.5,4.1H840.4z M859.9,187.5
			c-1-5.5-5.4-8-9.7-8c-3.2,0-8.5,1.7-10.1,8H859.9z"/>
		<path class="st4" d="M873.7,173.3h7.9v3c1.4-1.3,4.4-4.1,9.8-4.1c3.1,0,7.8,1.3,10.8,4.7c3.3,3.8,3.3,9.5,3.3,12.1v18.4h-8.6
			v-16.8c0-2.8,0-10.9-7.2-10.9c-1.5,0-4.3,0.7-5.9,3c-1.6,2.1-1.6,5.7-1.6,8.5v16.2h-8.6V173.3z"/>
		<path class="st4" d="M948.7,173.3v27.8c0,16.4-12.8,20.2-19.6,20.2c-7.4,0-14.9-3.7-18-11.3h9.8c3.4,3.8,7.5,3.8,8.8,3.8
			c4.8,0,10.5-3.2,11-10.6l-0.1-0.1c-1.2,1.5-4.5,5.5-11.8,5.5c-8.7,0-18.3-7.1-18.3-18.5c0-10.7,9.2-17.9,18.3-17.9
			c7.4,0,10.5,4,11.4,5.4h0.1v-4.2H948.7z M929.6,179.7c-5.2,0-10.5,4-10.5,10.5c0,6.9,5.5,10.9,10.7,10.9c5.2,0,10.3-4.2,10.3-11
			C940.1,185.2,936,179.7,929.6,179.7z"/>
		<path class="st4" d="M961.7,194.1c0.4,2.2,3.7,7,9.9,7c3.8,0,6.7-1.5,8.3-4.4h9c-2.1,6.1-8.9,11.9-17.3,11.9
			c-10.7,0-18.9-8.1-18.9-18.1c0-9.7,7.8-18.5,18.9-18.5c11.4,0,18.5,9.3,18.5,17.9c0,1.6-0.3,3-0.5,4.1H961.7z M981.3,187.5
			c-1-5.5-5.4-8-9.7-8c-3.2,0-8.5,1.7-10.1,8H981.3z"/>
		<path class="st4" d="M995,173.3h7.9v3c1.4-1.3,4.4-4.1,9.8-4.1c3.1,0,7.8,1.3,10.8,4.7c3.3,3.8,3.3,9.5,3.3,12.1v18.4h-8.6v-16.8
			c0-2.8,0-10.9-7.2-10.9c-1.5,0-4.3,0.7-5.9,3c-1.6,2.1-1.6,5.7-1.6,8.5v16.2H995V173.3z"/>
	</g>
</g>
</svg>
